<svg width="105" height="97" viewBox="0 0 105 97" fill="none" xmlns="http://www.w3.org/2000/svg">
<path fill-rule="evenodd" clip-rule="evenodd" d="M56.096 86.3165C74.5149 81.0614 88 64.1055 88 44C88 19.6995 68.3005 0 44 0C19.6995 0 0 19.6995 0 44C0 65.0976 14.8488 82.7271 34.6657 87.0079C39.3115 91.9147 49.738 98.9897 59.591 97.1128C59.9335 97.0476 60.0918 96.6553 59.9051 96.3608C58.4289 94.0322 56.1802 89.8449 56.096 86.3165Z" fill="#A6224D"/>
<mask id="path-2-outside-1_2633_409" maskUnits="userSpaceOnUse" x="44.4818" y="10" width="60" height="66" fill="black">
<rect fill="white" x="44.4818" y="10" width="60" height="66"/>
<path fill-rule="evenodd" clip-rule="evenodd" d="M67.1146 66.4203C55.502 63.1071 47 52.4169 47 39.7409C47 24.42 59.42 12 74.7409 12C90.0617 12 102.482 24.42 102.482 39.7409C102.482 53.0424 93.12 64.1573 80.6259 66.8563C77.7379 69.9065 71.3069 74.2856 65.1727 73.2736C64.8287 73.2169 64.6712 72.8241 64.8542 72.5273C65.7804 71.0253 67.0642 68.5351 67.1146 66.4203Z"/>
</mask>
<path fill-rule="evenodd" clip-rule="evenodd" d="M67.1146 66.4203C55.502 63.1071 47 52.4169 47 39.7409C47 24.42 59.42 12 74.7409 12C90.0617 12 102.482 24.42 102.482 39.7409C102.482 53.0424 93.12 64.1573 80.6259 66.8563C77.7379 69.9065 71.3069 74.2856 65.1727 73.2736C64.8287 73.2169 64.6712 72.8241 64.8542 72.5273C65.7804 71.0253 67.0642 68.5351 67.1146 66.4203Z" fill="#AFA935"/>
<path d="M67.1146 66.4203L67.6634 64.4971L69.1509 64.9215L69.1141 66.468L67.1146 66.4203ZM80.6259 66.8563L79.1736 65.4812L79.599 65.032L80.2036 64.9013L80.6259 66.8563ZM65.1727 73.2736L65.4983 71.3003H65.4983L65.1727 73.2736ZM64.8542 72.5273L63.1519 71.4775L63.1519 71.4775L64.8542 72.5273ZM49 39.7409C49 51.5001 56.8868 61.4224 67.6634 64.4971L66.5659 68.3436C54.1172 64.7918 45 53.3337 45 39.7409H49ZM74.7409 14C60.5246 14 49 25.5246 49 39.7409H45C45 23.3154 58.3154 10 74.7409 10V14ZM100.482 39.7409C100.482 25.5246 88.9572 14 74.7409 14V10C91.1663 10 104.482 23.3154 104.482 39.7409H100.482ZM80.2036 64.9013C91.7964 62.3971 100.482 52.081 100.482 39.7409H104.482C104.482 54.0038 94.4436 65.9176 81.0482 68.8112L80.2036 64.9013ZM65.4983 71.3003C68.0056 71.714 70.7101 71.0387 73.2318 69.7947C75.7427 68.5559 77.8829 66.8444 79.1736 65.4812L82.0782 68.2313C80.481 69.9183 77.9617 71.9215 75.0015 73.3819C72.0521 74.8369 68.474 75.8453 64.8472 75.247L65.4983 71.3003ZM66.5566 73.577C67.0398 72.7935 66.7053 71.4994 65.4983 71.3003L64.8472 75.247C62.952 74.9343 62.3027 72.8546 63.1519 71.4775L66.5566 73.577ZM69.1141 66.468C69.0805 67.8743 68.6486 69.2852 68.1619 70.4659C67.6659 71.6689 67.0572 72.7653 66.5566 73.577L63.1519 71.4775C63.5775 70.7873 64.0737 69.8876 64.4638 68.9413C64.8631 67.9727 65.0983 67.0812 65.1152 66.3726L69.1141 66.468Z" fill="#F9F7EC" mask="url(#path-2-outside-1_2633_409)"/>
</svg>
